<svg width="1711" height="513" viewBox="0 0 1711 513" fill="none" xmlns="http://www.w3.org/2000/svg">
<path fill-rule="evenodd" clip-rule="evenodd" d="M0.0644941 259.91C-2.1119 208.937 204.049 183.336 315.698 145.076C413.767 111.469 485.262 72.2383 613.519 49.6914C768.219 22.4958 944.996 -11.953 1115.69 4.44053C1286.45 20.8404 1336.28 84.7015 1439.06 128.976C1539.48 172.232 1728.69 207.764 1709.51 260.23C1690.2 313.087 1455.14 329.185 1350.27 371.925C1246.88 414.062 1264.91 485.505 1105.48 506.403C947.02 527.173 766.048 493.957 615.764 468.203C488.145 446.333 423.091 405.769 325.418 372.726C212.691 334.59 2.2449 310.977 0.0644941 259.91Z" fill="url(#paint0_linear_395_3161)"/>
<defs>
<linearGradient id="paint0_linear_395_3161" x1="855.409" y1="512.9" x2="855.505" y2="0.159707" gradientUnits="userSpaceOnUse">
<stop stop-color="#0B6BCB"/>
<stop offset="1" stop-color="#9ECCFA" stop-opacity="0.1"/>
</linearGradient>
</defs>
</svg>
