<svg width="223" height="265" viewBox="0 0 223 265" fill="none" xmlns="http://www.w3.org/2000/svg">
<path fill-rule="evenodd" clip-rule="evenodd" d="M104.683 1.12823C133.738 7.91758 116.351 62.5968 138.142 82.9897C151.42 95.4151 181.709 67.8395 191.998 82.8371C202.752 98.5141 175.195 117.476 174.843 136.488C174.6 149.59 185.234 160.008 190.343 172.074C200.778 196.72 231.23 220.554 220.888 245.238C212.14 266.117 177.239 253.438 154.859 256.766C137.996 259.274 120.484 268.924 104.683 262.519C88.356 255.901 87.91 227.273 70.8895 222.728C47.8758 216.582 23.7373 243.185 1.39037 234.935C-18.1606 227.718 -43.8625 202.324 -33.7047 184.117C-17.6406 155.323 40.6374 171.111 53.8521 140.902C63.9543 117.808 9.40265 103.869 12.3504 78.8325C14.4105 61.3355 49.2701 76.7115 62.745 65.3715C82.5565 48.6987 79.4747 -4.7623 104.683 1.12823Z" fill="url(#paint0_linear_257_8286)" fill-opacity="0.2"/>
<defs>
<linearGradient id="paint0_linear_257_8286" x1="93.5" y1="0.677246" x2="93.5" y2="264.677" gradientUnits="userSpaceOnUse">
<stop stop-color="#0B6BCB" stop-opacity="0.8"/>
<stop offset="1" stop-color="#CFE6FC"/>
</linearGradient>
</defs>
</svg>
