<svg width="216" height="220" viewBox="0 0 216 220" fill="none" xmlns="http://www.w3.org/2000/svg">
<path fill-rule="evenodd" clip-rule="evenodd" d="M117.02 1.06152C141.104 6.69118 126.691 52.0307 144.755 68.9402C155.761 79.2433 180.867 56.3779 189.396 68.8137C198.31 81.8129 175.468 97.536 175.176 113.3C174.974 124.164 183.789 132.803 188.024 142.808C196.674 163.244 221.916 183.007 213.343 203.475C206.092 220.788 177.162 210.274 158.611 213.034C144.633 215.113 130.118 223.115 117.02 217.804C103.486 212.316 103.116 188.579 89.0079 184.81C69.9317 179.714 49.923 201.772 31.3995 194.932C15.1935 188.947 -6.11104 167.891 2.30883 152.794C15.6245 128.918 63.9317 142.01 74.8855 116.961C83.2593 97.8112 38.0409 86.253 40.4844 65.4932C42.192 50.9848 71.0874 63.7344 82.2569 54.3314C98.6789 40.5065 96.1243 -3.82286 117.02 1.06152Z" fill="url(#paint0_linear_464_4584)" fill-opacity="0.2"/>
<defs>
<linearGradient id="paint0_linear_464_4584" x1="107.75" y1="0.687561" x2="107.75" y2="219.594" gradientUnits="userSpaceOnUse">
<stop stop-color="#0B6BCB" stop-opacity="0.8"/>
<stop offset="1" stop-color="#CFE6FC"/>
</linearGradient>
</defs>
</svg>
