<svg width="458" height="467" viewBox="0 0 458 467" fill="none" xmlns="http://www.w3.org/2000/svg">
<path fill-rule="evenodd" clip-rule="evenodd" d="M248.776 0.797771C300.155 12.8077 269.408 109.532 307.943 145.606C331.423 167.586 384.984 118.806 403.178 145.336C422.195 173.067 373.465 206.61 372.841 240.241C372.412 263.417 391.217 281.847 400.251 303.191C418.704 346.787 472.554 388.948 454.265 432.613C438.796 469.547 377.079 447.118 337.503 453.006C307.684 457.442 276.717 474.513 248.776 463.183C219.904 451.475 219.115 400.835 189.017 392.794C148.321 381.923 105.636 428.981 66.1189 414.388C31.5462 401.621 -13.9035 356.7 4.05884 324.493C32.4657 273.559 135.521 301.487 158.889 248.049C176.753 207.197 80.2873 182.54 85.5 138.252C89.1429 107.301 150.786 134.5 174.615 114.44C209.648 84.9471 204.198 -9.62223 248.776 0.797771Z" fill="url(#paint0_linear_101_1586)" fill-opacity="0.2"/>
<defs>
<linearGradient id="paint0_linear_101_1586" x1="229" y1="0" x2="229" y2="467" gradientUnits="userSpaceOnUse">
<stop stop-color="#0B6BCB" stop-opacity="0.8"/>
<stop offset="1" stop-color="#CFE6FC"/>
</linearGradient>
</defs>
</svg>
