<svg width="329" height="282" viewBox="0 0 329 282" fill="none" xmlns="http://www.w3.org/2000/svg">
<path fill-rule="evenodd" clip-rule="evenodd" d="M180.291 50.1559C211.669 53.7625 239.772 16.1047 269.63 26.4127C300.368 37.0247 326.372 68.8214 328.413 101.293C330.43 133.403 297.011 154.754 279.386 181.665C267.32 200.087 257.125 218.262 241.586 233.863C222.916 252.609 206.408 276.982 180.291 281.161C152.834 285.554 128.575 266.689 102.881 256.055C67.5361 241.426 12.1997 244.294 2.05854 207.392C-8.24732 169.892 50.0365 147.979 63.1142 111.353C75.5194 76.6114 41.9946 21.0772 74.6813 4.00597C109.59 -14.2255 141.17 45.6595 180.291 50.1559Z" fill="url(#paint0_linear_465_7209)" fill-opacity="0.2"/>
<defs>
<linearGradient id="paint0_linear_465_7209" x1="164.672" y1="0.5625" x2="164.672" y2="281.812" gradientUnits="userSpaceOnUse">
<stop stop-color="#0B6BCB" stop-opacity="0.8"/>
<stop offset="1" stop-color="#CFE6FC"/>
</linearGradient>
</defs>
</svg>
