<svg width="243" height="174" viewBox="0 0 243 174" fill="none" xmlns="http://www.w3.org/2000/svg">
<path d="M241.866 61.6982L205.513 26.4005L202.005 27.3008L204.644 26.4005L122.22 1.56482H120.637L36.7235 26.4005L0.401367 61.6982L27.317 68.9626L27.2239 69.2731V148.468L84.8116 163.431V165.139L89.282 164.58L119.892 172.527H123.059L215.696 148.468V69.2731V68.7764L241.866 61.6982Z" fill="#FFD297"/>
<path d="M203.124 27.0214L124.301 47.5729H117.813L36.7246 26.4005L120.638 1.56482L203.124 27.0214Z" fill="#F9A948"/>
<path d="M121.785 2.09229C117.625 12.9889 107.567 31.0258 89.1886 39.3458L74.5976 35.4963L39.6104 26.3692L109.057 5.84868L121.785 2.09229Z" fill="#DD872A"/>
<path d="M216.101 67.7517V147.598L130.355 169.857L121.042 172.248L121.477 160.482L145.257 154.677L192.01 143.066C196.076 142.083 199.693 139.76 202.277 136.471C204.862 133.182 206.265 129.119 206.259 124.936V71.2598L216.101 67.7517Z" fill="#F9A948"/>
<path d="M27.1924 67.7517V142.569C27.1924 145.394 27.9375 147.971 30.6694 148.778L111.789 169.826L122.748 173.303L120.637 160.42L96.8564 154.677L50.0722 143.066C46.0121 142.077 42.4024 139.751 39.8235 136.463C37.2447 133.175 35.8465 129.115 35.8538 124.936V71.2598L27.1924 67.7517Z" fill="#F9A948"/>
<path d="M36.8802 63.8402C39.3166 66.3208 42.4078 68.058 45.7935 68.8495C49.1792 69.641 52.7201 69.4541 56.0037 68.3106H56.2831C59.8222 66.9447 63.5786 64.0886 63.2681 60.3011C63.0128 58.575 62.1942 56.9815 60.9398 55.7686C58.9702 53.487 56.1828 52.071 53.1787 51.8259C50.6759 51.9016 48.1974 52.3409 45.8211 53.1298C40.8249 54.2512 35.6089 53.8732 30.8265 52.0433C29.6792 51.5175 28.4688 51.1419 27.2254 50.9257C26.6028 50.8165 25.9627 50.8674 25.3653 51.0738C24.7679 51.2802 24.2329 51.6352 23.8105 52.1053C23.3608 52.9773 23.2581 53.9873 23.5231 54.9319C23.7881 55.8765 24.401 56.6857 25.2385 57.1967C26.9183 58.1688 28.7261 58.9003 30.6092 59.3698C32.5617 59.9882 34.3033 61.1385 35.6385 62.6916L36.8802 63.8402Z" fill="#FFEBD2"/>
<path d="M46.1789 49.2471C46.3212 47.6073 43.501 46.0232 39.8798 45.7089C36.2586 45.3946 33.2076 46.4692 33.0653 48.109C32.923 49.7488 35.7432 51.3329 39.3644 51.6472C42.9857 51.9614 46.0366 50.8869 46.1789 49.2471Z" fill="#FFEBD2"/>
<path d="M27.1619 121.863C28.1564 121.863 28.9625 121.056 28.9625 120.062C28.9625 119.068 28.1564 118.261 27.1619 118.261C26.1675 118.261 25.3613 119.068 25.3613 120.062C25.3613 121.056 26.1675 121.863 27.1619 121.863Z" fill="#3E3126"/>
<path d="M39.6099 105.906C40.3814 105.906 41.0069 105.044 41.0069 103.981C41.0069 102.918 40.3814 102.056 39.6099 102.056C38.8384 102.056 38.2129 102.918 38.2129 103.981C38.2129 105.044 38.8384 105.906 39.6099 105.906Z" fill="white"/>
<path d="M121.476 45.5547C121.273 45.5553 121.076 45.4789 120.926 45.3407C120.777 45.2025 120.685 45.0128 120.669 44.8097V9.23255C120.646 9.12857 120.644 9.0211 120.663 8.91635C120.682 8.81159 120.722 8.71161 120.779 8.62216C120.837 8.53271 120.912 8.45556 120.999 8.39515C121.087 8.33474 121.186 8.29226 121.29 8.27016C121.396 8.2477 121.506 8.24688 121.612 8.26774C121.719 8.28861 121.82 8.33072 121.91 8.39158C122 8.45244 122.076 8.53079 122.135 8.62194C122.194 8.71309 122.234 8.81518 122.252 8.9221C122.284 9.02324 122.284 9.13141 122.252 9.23255V44.7786C122.252 44.9844 122.171 45.1819 122.025 45.3274C121.88 45.473 121.682 45.5547 121.476 45.5547Z" fill="#3E3126"/>
<path d="M36.6616 27.6732C36.3299 27.7019 35.9998 27.6027 35.7389 27.3959C35.4781 27.1891 35.3062 26.8903 35.2585 26.5608C35.2109 26.2313 35.2911 25.896 35.4827 25.6238C35.6743 25.3515 35.9628 25.1629 36.2891 25.0965L120.109 0.26082C120.268 0.208374 120.436 0.18858 120.603 0.202625C120.77 0.21667 120.932 0.264265 121.08 0.342553C121.228 0.42084 121.358 0.528204 121.463 0.658198C121.569 0.788193 121.647 0.938136 121.693 1.09902C121.746 1.25179 121.768 1.41367 121.758 1.57512C121.747 1.73656 121.705 1.89429 121.632 2.03899C121.56 2.18369 121.459 2.31242 121.336 2.41758C121.214 2.52274 121.071 2.60219 120.917 2.65125L37.0962 27.4869L36.6616 27.6732Z" fill="#3E3126"/>
<path d="M204.551 27.6733H204.179L121.786 2.83763C121.466 2.73745 121.198 2.51492 121.041 2.21843C120.885 1.92194 120.851 1.57547 120.948 1.25436C120.976 1.07957 121.041 0.912777 121.139 0.765152C121.236 0.617527 121.364 0.492485 121.514 0.39841C121.664 0.304334 121.833 0.243398 122.008 0.219688C122.183 0.195977 122.362 0.21004 122.531 0.260933L204.924 25.0966C205.085 25.143 205.236 25.2208 205.367 25.3256C205.498 25.4305 205.607 25.5602 205.688 25.7073C205.769 25.8545 205.819 26.0162 205.838 26.1831C205.856 26.35 205.84 26.5189 205.793 26.6799C205.72 26.9568 205.56 27.2028 205.336 27.3817C205.113 27.5606 204.837 27.6628 204.551 27.6733Z" fill="#3E3126"/>
<path d="M125.823 48.3488H116.137C116.033 48.3267 115.934 48.2842 115.846 48.2238C115.759 48.1634 115.684 48.0862 115.626 47.9968C115.568 47.9073 115.529 47.8074 115.51 47.7026C115.491 47.5978 115.493 47.4904 115.516 47.3864C115.548 47.234 115.624 47.0943 115.734 46.9841C115.845 46.874 115.984 46.798 116.137 46.7655H125.823C125.925 46.7839 126.024 46.823 126.111 46.8803C126.198 46.9376 126.273 47.0119 126.331 47.0989C126.389 47.1859 126.429 47.2837 126.448 47.3864C126.468 47.4892 126.466 47.5948 126.443 47.6968C126.416 47.8549 126.343 48.0013 126.232 48.1174C126.122 48.2335 125.979 48.3141 125.823 48.3488Z" fill="#3E3126"/>
<path d="M123.183 169.423C122.88 169.423 122.589 169.307 122.37 169.099C122.15 168.891 122.019 168.607 122.003 168.305V104.602C122.056 104.291 122.229 104.013 122.484 103.827C122.739 103.642 123.057 103.563 123.369 103.608C123.612 103.656 123.834 103.776 124.006 103.954C124.178 104.132 124.291 104.358 124.331 104.602V168.274C124.323 168.576 124.2 168.864 123.986 169.078C123.772 169.291 123.485 169.415 123.183 169.423Z" fill="#F9A948"/>
<path d="M123.183 97.8961C122.88 97.8965 122.589 97.7808 122.37 97.5728C122.15 97.3648 122.019 97.0805 122.003 96.7785V93.3946C122.056 93.0837 122.229 92.8059 122.484 92.6204C122.739 92.4348 123.057 92.3562 123.369 92.4012C123.612 92.4487 123.834 92.5693 124.006 92.7469C124.178 92.9245 124.291 93.1506 124.331 93.3946V96.8716C124.294 97.1516 124.158 97.409 123.947 97.597C123.736 97.785 123.465 97.8911 123.183 97.8961Z" fill="#F9A948"/>
<path d="M123.18 84.5621C123.025 84.5621 122.871 84.5316 122.728 84.4723C122.585 84.413 122.455 84.3261 122.346 84.2166C122.236 84.107 122.149 83.977 122.09 83.8338C122.031 83.6907 122 83.5373 122 83.3824V60.0058C122.053 59.6949 122.226 59.4171 122.481 59.2316C122.736 59.046 123.054 58.9674 123.366 59.0124C123.609 59.0599 123.831 59.1805 124.003 59.3581C124.175 59.5357 124.289 59.7618 124.328 60.0058V83.3824C124.328 83.69 124.208 83.9854 123.994 84.2058C123.779 84.4261 123.487 84.554 123.18 84.5621Z" fill="#F9A948"/>
<path d="M119.83 173.8H119.488L30.2972 150.641C29.0111 150.28 27.8755 149.515 27.059 148.458C26.2425 147.401 25.7886 146.109 25.7646 144.773V126.395C25.7646 126.057 25.8987 125.734 26.1374 125.495C26.3762 125.256 26.6999 125.122 27.0375 125.122C27.3751 125.122 27.6988 125.256 27.9375 125.495C28.1762 125.734 28.3103 126.057 28.3103 126.395H28.3413V144.773C28.3446 145.55 28.6055 146.303 29.083 146.916C29.5606 147.528 30.2278 147.965 30.9801 148.157L120.047 171.285C120.372 171.373 120.649 171.585 120.817 171.876C120.986 172.167 121.033 172.512 120.947 172.838C120.893 173.099 120.754 173.335 120.552 173.509C120.35 173.683 120.096 173.785 119.83 173.8Z" fill="#3E3126"/>
<path d="M27.1918 115.126C26.8542 115.126 26.5304 114.992 26.2917 114.753C26.053 114.514 25.9189 114.19 25.9189 113.853V105.471C25.9189 105.133 26.053 104.81 26.2917 104.571C26.5304 104.332 26.8542 104.198 27.1918 104.198C27.5293 104.198 27.8531 104.332 28.0918 104.571C28.3305 104.81 28.4646 105.133 28.4646 105.471H28.3404V113.884C28.3404 114.221 28.2063 114.545 27.9676 114.784C27.7289 115.023 27.4052 115.157 27.0676 115.157L27.1918 115.126Z" fill="#3E3126"/>
<path d="M27.1918 97.1822C26.8539 97.1665 26.5346 97.0232 26.2983 96.7812C26.062 96.5391 25.9264 96.2164 25.9189 95.8783V69.2731C25.9189 68.9355 26.053 68.6117 26.2917 68.373C26.5304 68.1343 26.8542 68.0002 27.1918 68.0002C27.5293 68.0002 27.8531 68.1343 28.0918 68.373C28.3305 68.6117 28.4646 68.9355 28.4646 69.2731H28.3404V95.8783C28.3445 96.0455 28.3157 96.2118 28.2555 96.3678C28.1953 96.5238 28.105 96.6664 27.9897 96.7875C27.8744 96.9086 27.7363 97.0058 27.5834 97.0735C27.4305 97.1412 27.2658 97.1781 27.0986 97.1822H27.1918Z" fill="#3E3126"/>
<path d="M122.995 173.8C122.828 173.809 122.661 173.784 122.503 173.728C122.345 173.671 122.201 173.584 122.077 173.472C121.953 173.359 121.852 173.223 121.78 173.072C121.709 172.921 121.668 172.757 121.66 172.589C121.639 172.289 121.728 171.99 121.911 171.75C122.094 171.51 122.358 171.345 122.654 171.286L211.721 148.157C212.473 147.965 213.14 147.528 213.618 146.916C214.095 146.304 214.356 145.55 214.359 144.774V69.2731C214.359 68.9355 214.493 68.6117 214.732 68.373C214.971 68.1343 215.295 68.0002 215.632 68.0002C215.97 68.0002 216.294 68.1343 216.532 68.373C216.771 68.6117 216.905 68.9355 216.905 69.2731V144.774C216.881 146.109 216.427 147.401 215.611 148.458C214.794 149.515 213.659 150.281 212.373 150.641L123.43 173.769L122.995 173.8Z" fill="#3E3126"/>
<path d="M95.9257 148.468H95.7394L73.2942 143.066C73.0937 143.008 72.9221 142.877 72.813 142.699C72.7039 142.521 72.6652 142.309 72.7044 142.104C72.7559 141.899 72.8854 141.723 73.0653 141.613C73.2452 141.502 73.4611 141.467 73.6667 141.514L96.112 146.853C96.3176 146.911 96.4919 147.048 96.5967 147.235C96.7014 147.421 96.7281 147.641 96.6708 147.847C96.6209 148.009 96.5229 148.152 96.3899 148.258C96.2569 148.363 96.095 148.425 95.9257 148.437V148.468Z" fill="#3E3126"/>
<path d="M95.9257 143.066H95.7394L73.2942 137.726C73.0937 137.668 72.9221 137.537 72.813 137.359C72.7039 137.181 72.6652 136.969 72.7044 136.764C72.7265 136.656 72.7699 136.553 72.8319 136.462C72.8938 136.37 72.9733 136.292 73.0656 136.232C73.1579 136.171 73.2613 136.129 73.3698 136.109C73.4783 136.088 73.5897 136.089 73.6978 136.112L96.143 141.452C96.3375 141.504 96.5051 141.628 96.6131 141.798C96.7211 141.968 96.7615 142.173 96.7265 142.371C96.6915 142.569 96.5835 142.747 96.4239 142.87C96.2642 142.993 96.0644 143.052 95.8636 143.035L95.9257 143.066Z" fill="#3E3126"/>
<path d="M95.9257 137.385H95.7394L73.2942 132.045C73.0937 131.987 72.9221 131.856 72.813 131.678C72.7039 131.5 72.6652 131.288 72.7044 131.083C72.7492 130.879 72.8713 130.7 73.0449 130.585C73.2186 130.469 73.4303 130.425 73.6357 130.462L96.0809 135.802C96.2868 135.826 96.4744 135.932 96.6024 136.095C96.7305 136.258 96.7886 136.465 96.7639 136.671C96.7392 136.877 96.6338 137.064 96.4707 137.192C96.3077 137.32 96.1005 137.378 95.8947 137.354L95.9257 137.385Z" fill="#3E3126"/>
<path d="M95.9257 108.793L73.4805 103.453V125.029L95.9257 130.369V108.793Z" fill="white"/>
<path opacity="0.2" d="M95.925 111.556V130.182L81.6445 126.736C87.7521 123.138 92.7062 117.871 95.925 111.556Z" fill="#C9D2DF"/>
<path d="M200.958 147.264C205.748 146.063 208.941 142.34 208.091 138.947C207.241 135.554 202.668 133.777 197.879 134.977C193.089 136.178 189.895 139.901 190.746 143.294C191.596 146.687 196.168 148.464 200.958 147.264Z" fill="#F9A948"/>
<path d="M208.581 129.292C208.986 127.874 207.657 126.252 205.613 125.668C203.568 125.085 201.583 125.761 201.178 127.179C200.773 128.597 202.103 130.219 204.147 130.803C206.191 131.387 208.177 130.71 208.581 129.292Z" fill="#F9A948"/>
<g opacity="0.4">
<path d="M189.897 137.447C190.806 137.447 191.543 136.71 191.543 135.801C191.543 134.893 190.806 134.156 189.897 134.156C188.989 134.156 188.252 134.893 188.252 135.801C188.252 136.71 188.989 137.447 189.897 137.447Z" fill="#F9A948"/>
<path d="M197.433 131.927C197.593 131.367 197.014 130.71 196.14 130.461C195.266 130.211 194.428 130.464 194.268 131.024C194.108 131.585 194.687 132.241 195.561 132.491C196.435 132.74 197.273 132.488 197.433 131.927Z" fill="#F9A948"/>
<path d="M184.216 139.744C184.576 139.744 184.868 139.452 184.868 139.092C184.868 138.732 184.576 138.44 184.216 138.44C183.856 138.44 183.564 138.732 183.564 139.092C183.564 139.452 183.856 139.744 184.216 139.744Z" fill="#F9A948"/>
</g>
<path d="M164.783 151.665C166.566 151.665 168.012 150.553 168.012 149.182C168.012 147.81 166.566 146.698 164.783 146.698C163 146.698 161.555 147.81 161.555 149.182C161.555 150.553 163 151.665 164.783 151.665Z" fill="#F9A948"/>
<path d="M166.895 144.432C167.512 144.432 168.013 143.932 168.013 143.315C168.013 142.697 167.512 142.197 166.895 142.197C166.278 142.197 165.777 142.697 165.777 143.315C165.777 143.932 166.278 144.432 166.895 144.432Z" fill="#F9A948"/>
<path d="M157.271 150.796C158.128 150.796 158.823 150.101 158.823 149.244C158.823 148.386 158.128 147.692 157.271 147.692C156.414 147.692 155.719 148.386 155.719 149.244C155.719 150.101 156.414 150.796 157.271 150.796Z" fill="#F9A948"/>
<path opacity="0.45" d="M159.692 145.053C160.173 145.053 160.562 144.664 160.562 144.184C160.562 143.704 160.173 143.314 159.692 143.314C159.212 143.314 158.823 143.704 158.823 144.184C158.823 144.664 159.212 145.053 159.692 145.053Z" fill="#F9A948"/>
<path d="M83.5713 87.1856C82.8992 87.1864 82.2303 87.0924 81.5845 86.9062L31.4475 73.1845C31.3142 73.1553 31.1882 73.0997 31.0767 73.0211C30.9652 72.9425 30.8706 72.8425 30.7983 72.7268C30.726 72.6111 30.6775 72.4822 30.6557 72.3476C30.6339 72.2129 30.6393 72.0753 30.6714 71.9427C30.7073 71.8077 30.7697 71.6812 30.8549 71.5705C30.9401 71.4598 31.0464 71.3671 31.1677 71.2978C31.2889 71.2285 31.4228 71.184 31.5614 71.1668C31.7 71.1496 31.8407 71.1601 31.9752 71.1976L82.0191 84.8262C82.96 85.0988 83.9591 85.0975 84.8993 84.8226C85.8395 84.5477 86.6819 84.0105 87.3277 83.274L116.51 50.553C116.708 50.3558 116.975 50.2451 117.255 50.2451C117.534 50.2451 117.802 50.3558 118 50.553C118.197 50.7508 118.308 51.0187 118.308 51.2981C118.308 51.5774 118.197 51.8453 118 52.0431L88.8179 84.7641C88.152 85.5009 87.344 86.0953 86.4423 86.5115C85.5406 86.9276 84.564 87.1569 83.5713 87.1856Z" fill="#F9A948"/>
<path d="M158.73 87.5273C157.836 87.5069 156.957 87.2939 156.154 86.9028C155.35 86.5117 154.64 85.9517 154.073 85.261L124.829 51.4224C124.602 51.2547 124.45 51.0056 124.403 50.7275C124.357 50.4495 124.421 50.1643 124.581 49.9323C124.778 49.7351 125.046 49.6244 125.326 49.6244C125.605 49.6244 125.873 49.7351 126.071 49.9323L126.257 50.1496L155.625 83.864C156.144 84.5434 156.869 85.0372 157.691 85.2721C158.513 85.507 159.389 85.4704 160.189 85.1679L210.357 71.6635C210.491 71.6259 210.632 71.6154 210.771 71.6326C210.909 71.6498 211.043 71.6943 211.164 71.7636C211.286 71.8329 211.392 71.9256 211.477 72.0363C211.562 72.147 211.625 72.2736 211.661 72.4085C211.698 72.5431 211.709 72.6837 211.692 72.8224C211.674 72.961 211.63 73.0948 211.561 73.2161C211.491 73.3374 211.399 73.4437 211.288 73.5289C211.177 73.6141 211.051 73.6765 210.916 73.7124L160.685 87.1858C160.051 87.3846 159.394 87.4994 158.73 87.5273Z" fill="#F9A948"/>
<path d="M5.46094 60.4252C5.05222 60.4161 4.66286 60.2492 4.37438 59.9595C4.08997 59.6694 3.93066 59.2793 3.93066 58.873C3.93066 58.4667 4.08997 58.0766 4.37438 57.7864L33.1838 29.5048C34.1338 28.5771 35.3085 27.9119 36.5928 27.5745C37.877 27.2371 39.2269 27.239 40.5103 27.58L110.33 46.2068C110.558 46.2324 110.779 46.3067 110.976 46.4245C111.174 46.5424 111.344 46.7011 111.476 46.8901C111.607 47.0791 111.696 47.294 111.738 47.5204C111.779 47.7467 111.772 47.9793 111.716 48.2026C111.66 48.4258 111.557 48.6346 111.414 48.8148C111.271 48.995 111.091 49.1426 110.886 49.2475C110.681 49.3525 110.457 49.4125 110.227 49.4235C109.997 49.4345 109.767 49.3962 109.553 49.3112L39.61 30.4982C38.8431 30.2987 38.0378 30.2996 37.2713 30.5007C36.5048 30.7018 35.8028 31.0965 35.2327 31.6469L6.39228 59.9285C6.15107 60.1999 5.82072 60.3761 5.46094 60.4252Z" fill="#FFEBD2"/>
<path d="M131.968 48.9386C131.708 48.9451 131.454 48.8554 131.256 48.6866C131.058 48.5178 130.93 48.2818 130.895 48.0239C130.861 47.766 130.922 47.5045 131.069 47.2894C131.215 47.0743 131.436 46.9209 131.689 46.8586L201.508 28.2008C201.769 28.167 202.033 28.229 202.252 28.3753C202.47 28.5216 202.628 28.7423 202.697 28.9964C202.765 29.2505 202.739 29.5207 202.623 29.7569C202.507 29.9931 202.309 30.1793 202.067 30.2808L132.247 48.9075L131.968 48.9386Z" fill="#FFEBD2"/>
<path d="M84.2232 85.5714H83.4781L2.57592 63.8401C1.85611 63.6375 1.24603 63.1576 0.879414 62.5059C0.512795 61.8541 0.419548 61.0836 0.620113 60.3632C0.772621 59.9271 1.04091 59.5408 1.39623 59.2455L35.7626 25.6553C35.9189 25.5011 36.1134 25.3912 36.3261 25.3366C36.5387 25.2821 36.7621 25.2849 36.9733 25.3449L118.124 46.5173C118.339 46.5664 118.536 46.6734 118.695 46.8266C118.854 46.9797 118.968 47.1734 119.024 47.3865C119.085 47.5954 119.091 47.8163 119.042 48.0283C118.993 48.2403 118.891 48.4361 118.745 48.5973L102.105 67.224C101.859 67.4487 101.538 67.5733 101.205 67.5733C100.871 67.5733 100.55 67.4487 100.304 67.224C100.186 67.1058 100.092 66.9655 100.028 66.811C99.9642 66.6565 99.9312 66.4909 99.9312 66.3237C99.9312 66.1565 99.9642 65.9909 100.028 65.8364C100.092 65.682 100.186 65.5416 100.304 65.4234L115.547 48.3489L37.1286 27.8905L3.16577 60.7357V61.1703L84.068 82.9015L93.3814 72.6258C93.4935 72.4994 93.6294 72.3963 93.7813 72.3225C93.9333 72.2486 94.0983 72.2054 94.2669 72.1953C94.4355 72.1852 94.6045 72.2085 94.7642 72.2637C94.9239 72.3189 95.0711 72.405 95.1975 72.5171C95.3238 72.6292 95.4269 72.7651 95.5008 72.9171C95.5746 73.069 95.6178 73.234 95.6279 73.4027C95.638 73.5713 95.6148 73.7403 95.5596 73.8999C95.5044 74.0596 95.4182 74.2068 95.3061 74.3332L86.179 84.5159C85.6918 85.1119 84.9888 85.4913 84.2232 85.5714Z" fill="#3E3126"/>
<path d="M32.4409 41.263C33.4015 39.7811 33.2004 37.9447 31.9919 37.1614C30.7833 36.378 29.0249 36.9443 28.0644 38.4263C27.1039 39.9082 27.3049 41.7445 28.5135 42.5279C29.722 43.3112 31.4804 42.7449 32.4409 41.263Z" fill="white"/>
<path d="M34.1154 37.8248C34.5097 37.8248 34.8294 37.5051 34.8294 37.1108C34.8294 36.7164 34.5097 36.3967 34.1154 36.3967C33.721 36.3967 33.4014 36.7164 33.4014 37.1108C33.4014 37.5051 33.721 37.8248 34.1154 37.8248Z" fill="white"/>
<path d="M28.9628 45.6791C29.46 45.6791 29.8631 45.2761 29.8631 44.7788C29.8631 44.2816 29.46 43.8785 28.9628 43.8785C28.4656 43.8785 28.0625 44.2816 28.0625 44.7788C28.0625 45.2761 28.4656 45.6791 28.9628 45.6791Z" fill="white"/>
<path d="M16.5137 54.713C17.4053 54.713 18.1281 53.9903 18.1281 53.0987C18.1281 52.2071 17.4053 51.4844 16.5137 51.4844C15.6222 51.4844 14.8994 52.2071 14.8994 53.0987C14.8994 53.9903 15.6222 54.713 16.5137 54.713Z" fill="white"/>
<path d="M121.476 169.081C121.262 169.081 121.057 168.996 120.906 168.845C120.754 168.694 120.669 168.488 120.669 168.274V104.602C120.646 104.498 120.644 104.39 120.663 104.286C120.682 104.181 120.722 104.081 120.779 103.991C120.837 103.902 120.912 103.825 120.999 103.764C121.087 103.704 121.186 103.662 121.29 103.639C121.396 103.617 121.506 103.616 121.612 103.637C121.719 103.658 121.82 103.7 121.91 103.761C122 103.822 122.076 103.9 122.135 103.991C122.194 104.082 122.234 104.184 122.252 104.291C122.284 104.392 122.284 104.501 122.252 104.602V168.274C122.253 168.483 122.172 168.684 122.027 168.834C121.882 168.985 121.685 169.073 121.476 169.081Z" fill="#3E3126"/>
<path d="M121.476 97.5544C121.262 97.5544 121.057 97.4693 120.906 97.318C120.754 97.1666 120.669 96.9613 120.669 96.7472V93.3944C120.646 93.2904 120.644 93.183 120.663 93.0782C120.682 92.9735 120.722 92.8735 120.779 92.784C120.837 92.6946 120.912 92.6174 120.999 92.557C121.087 92.4966 121.186 92.4541 121.29 92.432C121.396 92.4096 121.506 92.4087 121.612 92.4296C121.719 92.4505 121.82 92.4926 121.91 92.5534C122 92.6143 122.076 92.6927 122.135 92.7838C122.194 92.875 122.234 92.977 122.252 93.084C122.284 93.1851 122.284 93.2933 122.252 93.3944V96.8714C122.223 97.0581 122.13 97.2287 121.988 97.3535C121.846 97.4783 121.665 97.5494 121.476 97.5544Z" fill="#3E3126"/>
<path d="M121.476 84.2677C121.374 84.2719 121.272 84.2559 121.177 84.2207C121.081 84.1855 120.993 84.1317 120.918 84.0625C120.843 83.9933 120.782 83.91 120.74 83.8174C120.697 83.7247 120.673 83.6246 120.669 83.5226V60.084C120.687 59.977 120.727 59.875 120.786 59.7838C120.845 59.6927 120.922 59.6143 121.012 59.5534C121.101 59.4926 121.203 59.4505 121.309 59.4296C121.416 59.4087 121.525 59.4096 121.631 59.432C121.788 59.4667 121.931 59.5473 122.041 59.6634C122.152 59.7795 122.225 59.9259 122.252 60.084V83.4605C122.256 83.5625 122.24 83.6642 122.205 83.76C122.17 83.8558 122.116 83.9436 122.047 84.0186C121.978 84.0936 121.895 84.1542 121.802 84.1969C121.709 84.2396 121.609 84.2637 121.507 84.2677H121.476Z" fill="#3E3126"/>
<path d="M95.9244 131.176H95.7381L73.2929 125.836C73.1259 125.784 72.9793 125.682 72.8735 125.543C72.7678 125.403 72.7082 125.235 72.703 125.06V116.398C72.6802 116.294 72.6782 116.187 72.6972 116.082C72.7161 115.978 72.7555 115.878 72.8132 115.788C72.8709 115.699 72.9458 115.621 73.0334 115.561C73.1211 115.501 73.2198 115.458 73.3239 115.436C73.4301 115.414 73.5397 115.413 73.6462 115.434C73.7527 115.455 73.8538 115.497 73.9437 115.558C74.0335 115.618 74.1102 115.697 74.169 115.788C74.2279 115.879 74.2678 115.981 74.2863 116.088C74.3174 116.189 74.3174 116.297 74.2863 116.398V124.439L95.1172 129.406V109.413L74.2863 104.446V109.289C74.3088 109.391 74.3105 109.497 74.2913 109.6C74.272 109.702 74.2322 109.8 74.1742 109.887C74.1162 109.974 74.0413 110.049 73.9538 110.106C73.8664 110.163 73.7683 110.202 73.6654 110.221C73.5614 110.243 73.454 110.245 73.3492 110.226C73.2445 110.208 73.1445 110.168 73.055 110.11C72.9656 110.053 72.8884 109.978 72.828 109.89C72.7676 109.803 72.7251 109.704 72.703 109.6C72.6719 109.499 72.6719 109.39 72.703 109.289V103.453C72.6993 103.335 72.7226 103.218 72.771 103.11C72.8194 103.003 72.8917 102.907 72.9824 102.832C73.0863 102.772 73.204 102.74 73.3239 102.74C73.4438 102.74 73.5616 102.772 73.6654 102.832L96.1107 108.11C96.2738 108.169 96.4132 108.28 96.5083 108.426C96.6034 108.571 96.649 108.743 96.6384 108.917V130.648C96.6437 130.769 96.618 130.89 96.5637 130.999C96.5094 131.107 96.4282 131.2 96.328 131.269C96.1876 131.273 96.0485 131.241 95.9244 131.176Z" fill="#3E3126"/>
<path d="M39.6112 99.945C39.4026 99.937 39.2052 99.8484 39.0605 99.6979C38.9157 99.5474 38.835 99.3466 38.8351 99.1378V90.8179C38.8123 90.7139 38.8103 90.6064 38.8292 90.5017C38.8482 90.3969 38.8876 90.2969 38.9453 90.2075C39.003 90.118 39.0779 90.0409 39.1655 89.9805C39.2532 89.9201 39.3519 89.8776 39.456 89.8555C39.5622 89.833 39.6718 89.8322 39.7783 89.8531C39.8847 89.8739 39.9859 89.916 40.0758 89.9769C40.1656 90.0378 40.2423 90.1161 40.3011 90.2073C40.36 90.2984 40.3999 90.4005 40.4184 90.5074C40.4495 90.6086 40.4495 90.7167 40.4184 90.8179V99.1378C40.4184 99.3519 40.3334 99.5572 40.182 99.7086C40.0306 99.8599 39.8253 99.945 39.6112 99.945Z" fill="white"/>
<path d="M158.48 85.8507C158.042 85.854 157.608 85.7645 157.206 85.5879C156.805 85.4113 156.446 85.1517 156.152 84.8262L123.804 48.5972C123.623 48.3994 123.497 48.1582 123.437 47.8971C123.377 47.6359 123.386 47.3638 123.462 47.107C123.532 46.85 123.67 46.6165 123.861 46.4309C124.052 46.2453 124.29 46.1143 124.549 46.0515L205.699 24.8791C205.958 24.8 206.233 24.7929 206.496 24.8586C206.759 24.9242 206.998 25.0601 207.189 25.2516L241.556 58.6867C241.98 59.0633 242.293 59.5491 242.46 60.0911C242.628 60.6331 242.644 61.2106 242.506 61.761C242.369 62.3114 242.083 62.8135 241.68 63.2129C241.277 63.6123 240.772 63.8936 240.221 64.0263L159.288 85.7575C159.023 85.8192 158.752 85.8505 158.48 85.8507ZM127.839 48.5972L158.48 82.7462L239.383 61.015L205.637 28.2009L127.839 48.5972Z" fill="#3E3126"/>
<path d="M97.6941 71.8186C98.6886 71.8186 99.4947 71.0124 99.4947 70.018C99.4947 69.0236 98.6886 68.2174 97.6941 68.2174C96.6997 68.2174 95.8936 69.0236 95.8936 70.018C95.8936 71.0124 96.6997 71.8186 97.6941 71.8186Z" fill="#3E3126"/>
<path d="M89.5297 63.2191H89.2193C89.0819 63.0654 89.0059 62.8665 89.0059 62.6603C89.0059 62.4541 89.0819 62.2552 89.2193 62.1015L96.2043 53.0365C96.274 52.9622 96.3582 52.903 96.4516 52.8626C96.5451 52.8221 96.6458 52.8013 96.7476 52.8013C96.8494 52.8013 96.9502 52.8221 97.0436 52.8626C97.1371 52.903 97.2212 52.9622 97.2909 53.0365C97.366 53.1089 97.4258 53.1957 97.4666 53.2917C97.5074 53.3877 97.5284 53.4909 97.5284 53.5953C97.5284 53.6996 97.5074 53.8028 97.4666 53.8989C97.4258 53.9949 97.366 54.0817 97.2909 54.1541L90.43 63.2501C90.2896 63.3215 90.1333 63.3561 89.9759 63.3507C89.8184 63.3453 89.6649 63.3 89.5297 63.2191Z" fill="#3E3126"/>
<path d="M96.6404 59.8356L96.361 59.6803C96.2771 59.6215 96.2056 59.5466 96.1508 59.4601C96.0959 59.3735 96.0587 59.2769 96.0414 59.1759C96.0241 59.0748 96.027 58.9714 96.0499 58.8715C96.0727 58.7716 96.1152 58.6772 96.1747 58.5938L99.7449 53.7508C99.8145 53.6766 99.8987 53.6174 99.9921 53.5769C100.086 53.5365 100.186 53.5156 100.288 53.5156C100.39 53.5156 100.491 53.5365 100.584 53.5769C100.678 53.6174 100.762 53.6766 100.831 53.7508C100.915 53.8096 100.987 53.8845 101.042 53.9711C101.097 54.0577 101.134 54.1543 101.151 54.2553C101.168 54.3563 101.165 54.4598 101.143 54.5597C101.12 54.6596 101.077 54.754 101.018 54.8374L97.2923 59.6493C97.2026 59.724 97.0983 59.7792 96.986 59.8113C96.8738 59.8434 96.7561 59.8516 96.6404 59.8356Z" fill="#3E3126"/>
</svg>
