<svg width="1304" height="1028" viewBox="0 0 1304 1028" fill="none" xmlns="http://www.w3.org/2000/svg">
<path d="M827.675 145.538H125.424C104.107 145.538 86.8264 162.819 86.8264 184.135V358.289C86.8264 379.606 104.107 396.886 125.424 396.886H827.675C848.992 396.886 866.272 379.606 866.272 358.289V184.135C866.272 162.819 848.992 145.538 827.675 145.538Z" fill="white"/>
<path d="M866.273 302.853V381.831C866.273 390.151 849.511 396.886 828.955 396.886H124.19C103.573 396.886 86.8723 390.151 86.8723 381.831V336.118C134.384 348.704 188.478 357.192 243.959 362.464C311.006 368.833 380.109 370.692 448.923 370.967C531.208 371.302 614.864 369.306 692.317 358.136C763.295 347.927 829.108 329.108 866.273 302.853Z" fill="#E8F0F9"/>
<path d="M826.944 403.271H124.693C112.846 403.259 101.487 398.548 93.1089 390.173C84.7305 381.797 80.0161 370.44 80 358.593V184.425C80.0161 172.578 84.7305 161.221 93.1089 152.846C101.487 144.47 112.846 139.76 124.693 139.748H826.944C838.793 139.76 850.154 144.472 858.533 152.851C866.912 161.23 871.624 172.591 871.636 184.44V358.609C871.616 370.453 866.9 381.806 858.522 390.178C850.144 398.55 838.788 403.259 826.944 403.271ZM124.693 151.938C116.078 151.946 107.817 155.371 101.724 161.461C95.6311 167.551 92.2024 175.81 92.1903 184.425V358.593C92.1983 367.211 95.6253 375.474 101.719 381.567C107.813 387.661 116.075 391.088 124.693 391.096H826.944C835.561 391.088 843.824 387.661 849.918 381.567C856.011 375.474 859.438 367.211 859.446 358.593V184.425C859.438 175.807 856.011 167.545 849.918 161.451C843.824 155.358 835.561 151.931 826.944 151.923L124.693 151.938Z" fill="#314E5D"/>
<path d="M1179.67 535.627H376.955C355.638 535.627 338.358 552.907 338.358 574.224V748.377C338.358 769.694 355.638 786.975 376.955 786.975H1179.67C1200.99 786.975 1218.27 769.694 1218.27 748.377V574.224C1218.27 552.907 1200.99 535.627 1179.67 535.627Z" fill="white"/>
<path d="M1218.27 692.942V771.92C1218.27 780.24 1199.4 786.975 1176.13 786.975H380.49C357.222 786.975 338.358 780.24 338.358 771.92V726.206C391.995 738.793 453.068 747.28 515.696 752.553C591.306 758.922 669.385 760.781 747.082 761.055C839.942 761.391 934.416 759.394 1021.85 748.225C1102.02 738.016 1176.32 719.197 1218.27 692.942Z" fill="#E8F0F9"/>
<path d="M656.478 536.251C573.584 541.219 458.386 536.419 386.905 554.689C352.971 563.344 344.605 580.136 339.135 594.018L339.241 555.146C339.241 550.164 339.714 544.739 348.719 540.929C359.858 536.236 379.408 535.871 396.627 535.886C481.167 535.916 573.615 532.564 656.478 536.251Z" fill="#4ED9FF"/>
<path d="M1178.85 793.359H376.117C364.27 793.347 352.912 788.637 344.533 780.261C336.155 771.886 331.44 760.529 331.424 748.682V574.514C331.436 562.664 336.149 551.303 344.528 542.925C352.907 534.546 364.267 529.833 376.117 529.821H1178.85C1190.7 529.833 1202.06 534.546 1210.44 542.925C1218.81 551.303 1223.53 562.664 1223.54 574.514V748.682C1223.52 760.529 1218.81 771.886 1210.43 780.261C1202.05 788.637 1190.69 793.347 1178.85 793.359ZM376.117 542.027C367.502 542.035 359.242 545.459 353.149 551.55C347.055 557.64 343.627 565.899 343.615 574.514V748.682C343.623 757.3 347.05 765.562 353.143 771.656C359.237 777.749 367.499 781.176 376.117 781.184H1178.85C1187.46 781.176 1195.73 777.749 1201.82 771.656C1207.91 765.562 1211.34 757.3 1211.35 748.682V574.514C1211.34 565.896 1207.91 557.634 1201.82 551.54C1195.73 545.446 1187.46 542.019 1178.85 542.011L376.117 542.027Z" fill="#314E5D"/>
<path d="M1068.1 85.1504H265.49C244.173 85.1504 226.893 102.431 226.893 123.748V840.216C226.893 861.533 244.173 878.813 265.49 878.813H1068.1C1089.41 878.813 1106.7 861.533 1106.7 840.216V123.748C1106.7 102.431 1089.41 85.1504 1068.1 85.1504Z" fill="#1DCDFF"/>
<path d="M1106.7 581.904V831.226C1106.7 857.48 1087.83 878.752 1064.56 878.752H268.949C245.681 878.752 226.817 857.419 226.817 831.226V687.045C280.454 726.785 341.512 753.604 404.124 770.259C479.734 790.388 557.798 796.27 635.48 797.123C728.34 798.175 822.784 791.866 910.219 756.591C990.461 724.256 1064.76 664.798 1106.7 581.904Z" fill="#1AB5E1"/>
<path d="M544.983 87.1466C462.104 102.857 346.982 87.6952 275.44 145.355C241.521 172.692 233.155 225.704 227.685 269.544L227.807 146.833C227.807 131.123 228.279 113.95 237.285 101.958C248.424 87.1466 267.974 86.0038 285.177 86.0038C369.686 86.0952 462.119 75.703 544.983 87.1466Z" fill="#4ED9FF"/>
<path d="M1067.28 885.853H264.652C252.803 885.841 241.442 881.129 233.063 872.75C224.684 864.371 219.972 853.01 219.96 841.161V124.693C219.972 112.843 224.684 101.482 233.063 93.1035C241.442 84.7247 252.803 80.0121 264.652 80H1067.28C1079.12 80.0121 1090.49 84.7247 1098.86 93.1035C1107.24 101.482 1111.96 112.843 1111.97 124.693V841.176C1111.95 853.023 1107.24 864.38 1098.86 872.755C1090.48 881.131 1079.12 885.841 1067.28 885.853ZM264.652 92.1903C256.035 92.1983 247.772 95.6253 241.679 101.719C235.585 107.813 232.158 116.075 232.15 124.693V841.176C232.158 849.794 235.585 858.056 241.679 864.15C247.772 870.243 256.035 873.67 264.652 873.678H1067.28C1075.89 873.67 1084.16 870.243 1090.25 864.15C1096.34 858.056 1099.77 849.794 1099.78 841.176V124.693C1099.77 116.075 1096.34 107.813 1090.25 101.719C1084.16 95.6253 1075.89 92.1983 1067.28 92.1903H264.652Z" fill="#314E5D"/>
<path d="M1006.41 136.319H330.739C317.391 136.319 306.571 147.139 306.571 160.486V795.523C306.571 808.87 317.391 819.69 330.739 819.69H1006.41C1019.76 819.69 1030.58 808.87 1030.58 795.523V160.486C1030.58 147.139 1019.76 136.319 1006.41 136.319Z" fill="white"/>
<path d="M1029.42 155.702V288.393H305.367V155.702C305.367 145.523 315.729 137.264 328.514 137.264H1006.28C1019.06 137.264 1029.42 145.523 1029.42 155.702Z" fill="#DCEAEF"/>
<path d="M1005.55 829.58H329.901C321.877 829.572 314.184 826.381 308.511 820.707C302.837 815.034 299.646 807.341 299.638 799.318V159.328C299.65 151.307 302.843 143.618 308.516 137.948C314.189 132.278 321.88 129.089 329.901 129.081H1005.55C1013.57 129.089 1021.26 132.28 1026.94 137.954C1032.61 143.627 1035.8 151.32 1035.81 159.343V799.333C1035.8 807.354 1032.6 815.042 1026.93 820.713C1021.26 826.383 1013.57 829.572 1005.55 829.58ZM329.901 141.271C325.11 141.279 320.518 143.186 317.131 146.573C313.743 149.961 311.837 154.553 311.828 159.343V799.333C311.841 804.121 313.749 808.709 317.136 812.093C320.523 815.477 325.113 817.382 329.901 817.39H1005.55C1010.34 817.382 1014.93 815.475 1018.32 812.088C1021.7 808.7 1023.61 804.108 1023.62 799.318V159.328C1023.61 154.54 1021.7 149.952 1018.31 146.568C1014.92 143.184 1010.33 141.279 1005.55 141.271H329.901Z" fill="#314E5D"/>
<path d="M387.058 225.658H694.999V252.264H387.058V225.658Z" fill="white"/>
<path d="M528.115 353.87H377.458V347.546H528.115V353.87Z" fill="#CED5D8"/>
<path d="M705.361 367.797H377.458V361.473H705.361V367.797Z" fill="#CED5D8"/>
<path d="M528.115 381.724H377.458V375.401H528.115V381.724Z" fill="#CED5D8"/>
<path d="M705.361 395.652H377.458V389.328H705.361V395.652Z" fill="#CED5D8"/>
<path d="M528.115 409.579H377.458V403.255H528.115V409.579Z" fill="#CED5D8"/>
<path d="M705.361 423.491H377.458V417.168H705.361V423.491Z" fill="#CED5D8"/>
<path d="M528.115 479.719H377.458V473.395H528.115V479.719Z" fill="#CED5D8"/>
<path d="M705.361 493.646H377.458V487.323H705.361V493.646Z" fill="#CED5D8"/>
<path d="M528.115 507.574H377.458V501.25H528.115V507.574Z" fill="#CED5D8"/>
<path d="M705.361 521.501H377.458V515.177H705.361V521.501Z" fill="#CED5D8"/>
<path d="M528.115 535.429H377.458V529.105H528.115V535.429Z" fill="#CED5D8"/>
<path d="M705.361 549.341H377.458V543.017H705.361V549.341Z" fill="#CED5D8"/>
<path d="M528.115 605.568H377.458V599.245H528.115V605.568Z" fill="#CED5D8"/>
<path d="M705.361 619.496H377.458V613.172H705.361V619.496Z" fill="#CED5D8"/>
<path d="M528.115 633.423H377.458V627.099H528.115V633.423Z" fill="#CED5D8"/>
<path d="M705.361 647.351H377.458V641.027H705.361V647.351Z" fill="#CED5D8"/>
<path d="M528.115 661.278H377.458V654.954H528.115V661.278Z" fill="#CED5D8"/>
<path d="M705.361 675.19H377.458V668.866H705.361V675.19Z" fill="#CED5D8"/>
<path d="M999.116 178.924H886.021V165.621H999.116V178.924Z" fill="#EEA248"/>
<path d="M870.417 178.924H757.322V165.621H870.417V178.924Z" fill="#EEA248"/>
<path d="M341.344 185.095C348.43 185.095 354.175 179.351 354.175 172.265C354.175 165.179 348.43 159.435 341.344 159.435C334.258 159.435 328.514 165.179 328.514 172.265C328.514 179.351 334.258 185.095 341.344 185.095Z" fill="#EEA248"/>
<path d="M754.024 692.103L794.935 653.308L877.946 740.844L837.036 779.639L754.024 692.103Z" fill="#314E5D"/>
<g opacity="0.5">
<path d="M759.442 654.692C812.757 604.133 814.992 519.925 764.432 466.609C713.873 413.293 629.665 411.059 576.349 461.618C523.034 512.178 520.799 596.385 571.359 649.701C621.918 703.017 706.126 705.252 759.442 654.692Z" fill="#8BDDEB"/>
<path d="M597.782 635.038C584.327 620.858 574.164 603.886 568.017 585.329C561.87 566.773 559.89 547.09 562.218 527.682C564.546 508.273 571.125 489.616 581.486 473.04C591.847 456.464 605.736 442.377 622.162 431.781C604.586 438.222 588.566 448.299 575.151 461.355C561.735 474.411 551.226 490.151 544.31 507.546C537.394 524.941 534.227 543.6 535.015 562.303C535.804 581.006 540.53 599.332 548.886 616.084C557.242 632.835 569.039 647.634 583.505 659.515C597.972 671.395 614.783 680.088 632.839 685.027C650.896 689.966 669.791 691.038 688.29 688.175C706.79 685.311 724.477 678.576 740.195 668.409C715.792 677.366 689.3 678.979 663.991 673.048C638.682 667.118 615.665 653.904 597.782 635.038Z" fill="#62D6F8"/>
</g>
<path d="M813.092 416.116C798.594 400.791 781.812 387.802 763.341 377.61C763.021 377.412 762.701 377.245 762.35 377.077C719.649 353.822 670.069 346.512 622.473 356.453C574.877 366.393 532.367 392.937 502.543 431.338C472.718 469.74 457.523 517.497 459.673 566.073C461.823 614.648 481.178 660.876 514.278 696.493C514.751 697.026 515.238 697.544 515.802 698.016C530.937 714.016 548.562 727.462 567.992 737.833L568.54 738.122C611.479 760.834 661.091 767.551 708.523 757.075C755.955 746.598 798.123 719.611 827.502 680.927C856.881 642.243 871.56 594.38 868.921 545.876C866.282 497.372 846.496 451.384 813.092 416.116ZM762.975 466.614C781.082 485.707 793.122 509.74 797.57 535.674C802.019 561.609 798.677 588.28 787.967 612.315C777.257 636.351 759.66 656.67 737.402 670.705C715.144 684.739 689.224 691.858 662.92 691.161C636.616 690.464 611.109 681.983 589.625 666.79C568.142 651.596 551.646 630.373 542.223 605.805C532.801 581.236 530.876 554.426 536.692 528.763C542.507 503.1 555.802 479.738 574.895 461.632C587.571 449.609 602.492 440.201 618.806 433.945C635.119 427.689 652.505 424.708 669.97 425.172C687.436 425.636 704.638 429.536 720.596 436.65C736.554 443.763 750.955 453.95 762.975 466.63V466.614Z" fill="#E7E7E7"/>
<path d="M827.462 676.44C792.672 709.434 747.412 729.182 699.563 732.246C651.713 735.31 604.305 721.495 565.591 693.207C526.877 664.919 499.311 623.95 487.691 577.431C476.07 530.913 481.133 481.793 501.997 438.623C485.131 461.58 473.237 487.803 467.075 515.616C460.914 543.428 460.619 572.22 466.21 600.154C471.801 628.087 483.156 654.547 499.548 677.845C515.941 701.143 537.011 720.767 561.415 735.465C585.818 750.162 613.018 759.609 641.277 763.203C669.537 766.797 698.235 764.458 725.541 756.337C752.846 748.216 778.158 734.491 799.86 716.038C821.562 697.584 839.178 674.808 851.583 649.164C844.363 658.95 836.291 668.077 827.462 676.44Z" fill="#CED0D0"/>
<path d="M666.139 769.162C631.059 769.179 596.536 760.387 565.737 743.593L564.975 743.181C520.246 718.573 485.915 678.63 468.306 630.711C467.91 629.675 467.529 628.593 467.179 627.48C453.269 587.459 451.729 544.176 462.761 503.267C473.792 462.358 496.884 425.718 529.029 398.115C561.174 370.512 600.885 353.226 642.991 348.506C685.098 343.786 727.65 351.852 765.109 371.652C765.52 371.85 765.932 372.079 766.328 372.308C805.76 393.506 837.427 426.698 856.75 467.083C876.072 507.467 882.049 552.951 873.816 596.956C865.582 640.962 843.566 681.208 810.949 711.874C778.333 742.541 736.807 762.038 692.379 767.547C683.673 768.62 674.91 769.16 666.139 769.162ZM666.489 359.264C634.755 359.275 603.484 366.879 575.288 381.44C547.092 396.001 522.788 417.097 504.408 442.966C486.027 468.836 474.103 498.727 469.63 530.144C465.158 561.562 468.267 593.594 478.698 623.564V623.747C478.988 624.661 479.323 625.576 479.658 626.475C496.251 671.675 528.632 709.349 570.826 732.545L571.36 732.835C612.959 755.59 661.323 762.725 707.722 752.953C754.121 743.18 795.498 717.143 824.385 679.541C853.272 641.939 867.766 595.25 865.251 547.899C862.736 500.549 843.378 455.658 810.67 421.328C796.099 405.92 779.147 392.955 760.461 382.928L760.233 382.791L759.745 382.532L759.516 382.41C730.863 367.22 698.921 359.288 666.489 359.31V359.264ZM666.489 697.255C665.225 697.255 663.975 697.255 662.71 697.255C626.021 696.756 591.017 681.766 565.337 655.557C539.657 629.348 525.385 594.046 525.634 557.353C525.884 520.661 540.634 485.556 566.669 459.699C592.703 433.841 627.907 419.329 664.6 419.329C701.293 419.329 736.497 433.841 762.531 459.699C788.565 485.556 803.316 520.661 803.566 557.353C803.815 594.046 789.543 629.348 763.863 655.557C738.183 681.766 703.179 696.756 666.489 697.255ZM666.322 431.171C633.831 431.104 602.569 443.583 579.055 466.005C557.748 486.213 544.107 513.183 540.455 542.32C536.804 571.458 543.368 600.96 559.03 625.8C574.691 650.64 598.481 669.282 626.346 678.549C654.211 687.815 684.427 687.134 711.846 676.621C739.265 666.107 762.19 646.412 776.716 620.891C791.242 595.37 796.469 565.602 791.508 536.659C786.547 507.715 771.704 481.388 749.508 462.161C727.312 442.935 699.136 431.999 669.781 431.217C668.653 431.217 667.515 431.217 666.368 431.217L666.322 431.171Z" fill="#314E5D"/>
<path d="M827.634 725.197L827.623 725.207C810.256 741.676 809.528 769.106 825.997 786.472L949.209 916.401C965.678 933.768 993.107 934.496 1010.47 918.027L1010.49 918.016C1027.85 901.547 1028.58 874.118 1012.11 856.751L888.899 726.822C872.43 709.455 845.001 708.727 827.634 725.197Z" fill="#426372"/>
<path d="M978.865 935.986H977.509C971.02 935.84 964.624 934.409 958.692 931.775C952.76 929.141 947.409 925.357 942.949 920.641L819.752 790.693C815.284 785.983 811.788 780.438 809.464 774.377C807.139 768.315 806.031 761.855 806.203 755.365C806.375 748.876 807.823 742.483 810.466 736.553C813.108 730.624 816.892 725.272 821.603 720.805C826.313 716.337 831.858 712.842 837.919 710.517C843.981 708.192 850.441 707.084 856.931 707.256C863.42 707.428 869.813 708.876 875.743 711.519C881.673 714.161 887.024 717.946 891.491 722.656L1014.7 852.559C1023.69 862.087 1028.55 874.787 1028.2 887.883C1027.85 900.978 1022.33 913.403 1012.85 922.439C1003.69 931.168 991.515 936.021 978.865 935.986ZM855.606 719.456C848.333 719.473 841.225 721.618 835.156 725.625C829.087 729.633 824.323 735.328 821.451 742.01C818.579 748.691 817.724 756.067 818.993 763.229C820.261 770.39 823.597 777.024 828.589 782.312L951.787 912.23C958.602 919.369 967.964 923.523 977.83 923.785C987.695 924.048 997.264 920.398 1004.45 913.632C1011.59 906.817 1015.74 897.456 1016 887.59C1016.27 877.724 1012.62 868.155 1005.85 860.97L882.653 731.052C879.173 727.379 874.978 724.456 870.327 722.462C865.676 720.468 860.667 719.445 855.606 719.456Z" fill="#314E5D"/>
<g opacity="0.5">
<path d="M869.168 741.444C884.406 754.244 896.184 770.168 910.416 783.943C914.653 788.042 921.083 781.581 916.877 777.482C902.645 763.768 890.866 747.783 875.629 734.983C871.149 731.22 864.657 737.65 869.168 741.444Z" fill="white"/>
<path d="M842.867 738.564C845.308 737.052 848.052 736.096 850.904 735.764C853.756 735.432 856.647 735.733 859.37 736.644C865.023 738.29 867.446 729.467 861.808 727.822C857.905 726.591 853.785 726.207 849.723 726.696C845.66 727.184 841.749 728.535 838.25 730.656C833.206 733.704 837.793 741.581 842.821 738.549L842.867 738.564Z" fill="white"/>
</g>
<path d="M717.018 391.081C741.323 398.471 764.179 410.295 783.166 427.164C807.272 448.497 823.668 476.504 833.694 506.919C835.523 512.48 844.361 510.103 842.517 504.481C832.018 472.634 814.891 443.087 789.642 420.672C769.406 402.722 745.239 390.197 719.471 382.243C713.833 380.521 711.426 389.343 717.033 391.065L717.018 391.081Z" fill="white"/>
<path d="M628.227 382.593C644.12 380.49 660.592 381.267 676.47 382.883C682.321 383.477 682.275 374.334 676.47 373.74C660.592 372.125 644.12 371.348 628.227 373.45C622.482 374.212 622.406 383.37 628.227 382.593Z" fill="white"/>
</svg>
