<svg width="191" height="188" viewBox="0 0 191 188" fill="none" xmlns="http://www.w3.org/2000/svg">
<path d="M43.3145 81.9613C42.9931 81.7697 42.761 81.4582 42.6692 81.0955C42.5774 80.7327 42.6334 80.3483 42.825 80.0269L45.8684 74.9216C46.0732 74.6308 46.3802 74.428 46.7281 74.3539C47.076 74.2797 47.439 74.3397 47.7446 74.5219C48.0501 74.704 48.2755 74.9948 48.3758 75.3361C48.4761 75.6773 48.4437 76.0439 48.2853 76.3623L45.2419 81.4677C45.051 81.7879 44.7411 82.0195 44.38 82.112C44.0189 82.2045 43.6358 82.1503 43.3145 81.9613Z" fill="white"/>
<path d="M48.9124 72.5727C48.591 72.3811 48.3589 72.0697 48.2671 71.7069C48.1753 71.3442 48.2314 70.9598 48.423 70.6384L50.0837 67.8524C50.1703 67.6785 50.2918 67.5243 50.4408 67.3995C50.5897 67.2747 50.7628 67.1821 50.9492 67.1273C51.1356 67.0725 51.3313 67.0568 51.5241 67.0812C51.7168 67.1056 51.9024 67.1696 52.0693 67.2691C52.2362 67.3686 52.3808 67.5014 52.4939 67.6594C52.607 67.8173 52.6863 67.9969 52.7268 68.187C52.7673 68.377 52.7681 68.5733 52.7292 68.7637C52.6902 68.954 52.6124 69.1343 52.5006 69.2931L50.8398 72.0791C50.6489 72.3993 50.3391 72.631 49.9779 72.7235C49.6168 72.816 49.2337 72.7618 48.9124 72.5727Z" fill="white"/>
<path opacity="0.35" d="M86.9969 105.679L34.8851 74.614C32.4886 73.1854 29.3878 73.9701 27.9592 76.3665L27.9551 76.3735C26.5265 78.7699 27.3111 81.8707 29.7076 83.2993L81.8194 114.364C84.2159 115.793 87.3167 115.008 88.7453 112.612L88.7494 112.605C90.178 110.208 89.3934 107.107 86.9969 105.679Z" fill="#97C3F0"/>
<path d="M177.943 104.868L131.478 181.943L5.98914 106.41L52.4403 30.119L177.943 104.868Z" fill="#0B6BCB"/>
<path d="M151.553 151.053C151.254 150.875 150.993 150.639 150.785 150.36C150.577 150.081 150.426 149.764 150.341 149.426C150.255 149.089 150.237 148.737 150.287 148.393C150.338 148.048 150.455 147.717 150.634 147.418L153.125 143.239C153.485 142.635 154.07 142.199 154.752 142.026C155.434 141.854 156.156 141.959 156.76 142.319C157.364 142.679 157.8 143.264 157.973 143.946C158.145 144.628 158.04 145.35 157.68 145.954L155.189 150.133C154.829 150.737 154.243 151.174 153.562 151.346C152.88 151.519 152.157 151.413 151.553 151.053Z" fill="#051423"/>
<path d="M158.342 139.666C158.043 139.487 157.782 139.252 157.573 138.973C157.365 138.693 157.214 138.376 157.129 138.038C157.043 137.701 157.025 137.35 157.076 137.005C157.126 136.661 157.244 136.329 157.422 136.03L157.526 135.856C157.886 135.252 158.471 134.816 159.153 134.643C159.834 134.471 160.557 134.576 161.161 134.936C161.765 135.296 162.201 135.882 162.374 136.563C162.546 137.245 162.441 137.967 162.081 138.572L161.977 138.746C161.617 139.35 161.032 139.786 160.35 139.958C159.668 140.131 158.946 140.026 158.342 139.666Z" fill="#051423"/>
<path d="M162.898 119.084C162.869 118.349 162.549 117.657 162.009 117.158C161.469 116.659 160.753 116.395 160.019 116.423L84.2067 119.035L50.4583 51.0841C50.1305 50.4243 49.5541 49.9217 48.8558 49.6869C48.1575 49.4521 47.3946 49.5043 46.7348 49.832C46.075 50.1598 45.5724 50.7362 45.3376 51.4345C45.1028 52.1328 45.155 52.8957 45.4827 53.5555L79.69 122.431C79.8552 122.766 80.0868 123.064 80.3708 123.306C80.6548 123.548 80.9852 123.73 81.3419 123.841C81.4972 123.99 81.6693 124.121 81.8547 124.231C82.3127 124.503 82.8395 124.637 83.3716 124.616L160.228 121.948C160.961 121.921 161.654 121.604 162.155 121.068C162.655 120.531 162.922 119.817 162.898 119.084Z" fill="#12467B"/>
<path d="M83.6343 118.684C83.1965 118.424 82.8433 118.043 82.6175 117.587L48.4409 48.7387C48.1278 48.109 48.0777 47.3806 48.3017 46.7139C48.5256 46.0472 49.0052 45.4968 49.635 45.1837C50.2648 44.8706 50.9931 44.8205 51.6598 45.0445C52.3265 45.2684 52.877 45.748 53.1901 46.3778L87.3973 115.253C87.6446 115.765 87.7211 116.342 87.6155 116.901C87.5098 117.459 87.2277 117.968 86.8105 118.354C86.3934 118.74 85.8634 118.982 85.2985 119.043C84.7337 119.105 84.164 118.984 83.6733 118.697L83.6343 118.684Z" fill="#051423"/>
<path d="M84.7556 119.352C84.2703 119.057 83.8926 118.613 83.6783 118.087C83.464 117.561 83.4245 116.98 83.5654 116.429C83.7064 115.879 84.0204 115.388 84.4612 115.03C84.9021 114.672 85.4464 114.464 86.014 114.438L162.874 111.763C163.577 111.739 164.261 111.995 164.775 112.475C165.289 112.955 165.591 113.619 165.616 114.322C165.64 115.025 165.384 115.709 164.904 116.223C164.424 116.737 163.759 117.039 163.056 117.063L86.2043 119.725C85.6956 119.743 85.1924 119.614 84.7556 119.352Z" fill="#051423"/>
<path d="M129.291 163.063C128.854 162.803 128.5 162.422 128.275 161.965L106.472 118.062C106.159 117.432 106.109 116.704 106.333 116.037C106.557 115.37 107.036 114.82 107.666 114.507C108.296 114.194 109.024 114.144 109.691 114.368C110.358 114.592 110.908 115.071 111.221 115.701L133.024 159.605C133.271 160.116 133.348 160.694 133.242 161.252C133.136 161.81 132.854 162.32 132.437 162.705C132.02 163.091 131.49 163.333 130.925 163.395C130.36 163.456 129.79 163.335 129.3 163.049L129.291 163.063Z" fill="#051423"/>
<path d="M24.1682 100.397C23.6828 100.102 23.3052 99.6581 23.0909 99.1318C22.8766 98.6056 22.837 98.0245 22.978 97.474C23.1189 96.9236 23.4329 96.433 23.8738 96.0746C24.3146 95.7161 24.859 95.5088 25.4266 95.483L74.4243 93.766C75.0853 93.8068 75.707 94.0934 76.1673 94.5695C76.6276 95.0456 76.8931 95.6767 76.9116 96.3386C76.93 97.0006 76.7001 97.6455 76.2671 98.1465C75.834 98.6475 75.2292 98.9683 74.5715 99.0458L25.6224 100.745C25.1143 100.772 24.6092 100.651 24.1682 100.397Z" fill="#051423"/>
<path d="M10.2271 102.565L135.603 177.304L132.477 182.549L7.10063 107.81L10.2271 102.565Z" fill="#12467B"/>
<g opacity="0.7">
<path d="M32.1361 81.2062C31.6835 80.9364 31.3567 80.4979 31.2274 79.9871C31.0982 79.4763 31.1771 78.9351 31.4469 78.4825L35.3041 72.0121C35.4376 71.788 35.6141 71.5924 35.8232 71.4365C36.0324 71.2806 36.2702 71.1674 36.5231 71.1034C36.7761 71.0394 37.0391 71.0258 37.2973 71.0635C37.5554 71.1012 37.8036 71.1893 38.0277 71.3229C38.2518 71.4565 38.4474 71.6329 38.6033 71.8421C38.7592 72.0512 38.8724 72.2891 38.9364 72.542C39.0004 72.7949 39.0139 73.0579 38.9763 73.3161C38.9386 73.5742 38.8505 73.8224 38.7169 74.0465L34.8597 80.517C34.7261 80.7411 34.5497 80.9367 34.3406 81.0926C34.1314 81.2485 33.8936 81.3617 33.6406 81.4257C33.3877 81.4897 33.1247 81.5032 32.8665 81.4656C32.6084 81.4279 32.3602 81.3398 32.1361 81.2062Z" fill="white"/>
<path d="M39.2312 69.3029C38.7787 69.0331 38.4518 68.5946 38.3226 68.0838C38.1933 67.5731 38.2723 67.0319 38.542 66.5793L40.618 63.0968C40.8878 62.6442 41.3263 62.3174 41.8371 62.1881C42.3479 62.0589 42.8891 62.1378 43.3417 62.4076C43.7942 62.6774 44.1211 63.1159 44.2503 63.6267C44.3796 64.1375 44.3006 64.6787 44.0309 65.1313L41.9549 68.6137C41.6851 69.0663 41.2466 69.3932 40.7358 69.5224C40.225 69.6517 39.6838 69.5727 39.2312 69.3029Z" fill="white"/>
</g>
<path opacity="0.7" d="M27.2773 89.3078C28.4082 89.9819 29.8715 89.6117 30.5456 88.4807C31.2198 87.3498 30.8495 85.8865 29.7186 85.2124C28.5877 84.5382 27.1244 84.9085 26.4502 86.0394C25.7761 87.1703 26.1463 88.6336 27.2773 89.3078Z" fill="white"/>
<path opacity="0.5" d="M51.2578 30.8682L175.373 104.856L171.824 110.811L47.7079 36.8232L51.2578 30.8682Z" fill="#EDF5FD"/>
<path d="M47.8714 136.853L8.17112 113.187C6.21749 112.015 4.80794 110.116 4.25115 107.907C3.69437 105.698 4.03571 103.358 5.20044 101.4L46.2549 32.5305C47.4248 30.5722 49.3238 29.1581 51.5351 28.5986C53.7465 28.039 56.0895 28.3797 58.05 29.5458L175.333 99.4606C177.291 100.63 178.705 102.529 179.265 104.741C179.824 106.952 179.484 109.295 178.318 111.256L167.523 129.365C167.162 129.969 166.577 130.405 165.895 130.577C165.214 130.75 164.491 130.644 163.887 130.284C163.283 129.924 162.847 129.339 162.674 128.657C162.502 127.976 162.607 127.253 162.967 126.649L173.763 108.54C174.209 107.788 174.338 106.89 174.124 106.042C173.909 105.194 173.368 104.465 172.618 104.016L55.3346 34.1009C54.5823 33.6549 53.6839 33.525 52.836 33.7396C51.9881 33.9541 51.2597 34.4957 50.81 35.2458L9.75137 104.122C9.30537 104.875 9.17544 105.773 9.38999 106.621C9.60454 107.469 10.1461 108.197 10.8963 108.647L50.5966 132.313C51.2006 132.673 51.6369 133.258 51.8094 133.94C51.9819 134.622 51.8765 135.344 51.5164 135.948C51.1563 136.552 50.5711 136.989 49.8893 137.161C49.2076 137.334 48.4852 137.228 47.8812 136.868L47.8714 136.853Z" fill="#051423"/>
<path d="M125.468 183.11L77.7584 154.669C77.1544 154.309 76.7181 153.724 76.5456 153.042C76.3731 152.36 76.4785 151.638 76.8386 151.034C77.1987 150.43 77.784 149.993 78.4657 149.821C79.1474 149.648 79.8698 149.754 80.4738 150.114L128.184 178.555C128.936 179.001 129.835 179.131 130.682 178.916C131.53 178.702 132.259 178.16 132.708 177.41L144.629 157.413C144.989 156.809 145.574 156.373 146.256 156.201C146.938 156.028 147.66 156.133 148.264 156.494C148.868 156.854 149.304 157.439 149.477 158.121C149.649 158.802 149.544 159.525 149.184 160.129L137.259 180.132C136.088 182.088 134.19 183.5 131.979 184.058C129.769 184.616 127.428 184.275 125.468 183.11Z" fill="#051423"/>
<path d="M95.1506 99.8533C109.391 108.342 127.828 103.661 136.33 89.3977C144.833 75.1343 140.182 56.69 125.942 48.2011C111.701 39.7122 93.2645 44.3933 84.7618 58.6567C76.2591 72.92 80.9104 91.3644 95.1506 99.8533Z" fill="#12467B"/>
<path d="M99.2149 93.5105C113.478 102.013 131.934 97.3432 140.436 83.0799C148.939 68.8165 144.269 50.361 130.006 41.8583C115.742 33.3557 97.2869 38.0256 88.7842 52.289C80.2816 66.5523 84.9515 85.0078 99.2149 93.5105Z" fill="white"/>
<path opacity="0.5" d="M140.976 83.1419C138.732 86.8628 135.709 90.0532 132.115 92.4936C128.52 94.934 124.439 96.5664 120.153 97.2782C115.867 97.9901 111.477 97.7646 107.287 96.6172C103.096 95.4699 99.2042 93.428 95.8785 90.632C92.5528 87.8361 89.8726 84.3526 88.0224 80.4215C86.1722 76.4903 85.196 72.2049 85.161 67.8602C85.126 63.5156 86.033 59.2149 87.8196 55.2544C89.6061 51.294 92.2298 47.7677 95.51 44.9186C90.4831 58.1021 95.0923 75.4063 106.487 82.1989C117.882 88.9915 133.429 86.5538 144.502 74.1234C143.824 77.3011 142.633 80.3472 140.976 83.1419Z" fill="#E3EFFB"/>
<path d="M141.003 82.6208C136.92 89.4712 130.282 94.4188 122.55 96.3752C114.819 98.3316 106.627 97.1365 99.7763 93.0528C92.9258 88.9692 87.9782 82.3314 86.0218 74.5998C84.0654 66.8683 85.2605 58.6762 89.3442 51.8257C90.0143 50.7006 90.7562 49.6199 91.5655 48.5904C88.6843 55.2907 88.3362 62.8097 90.5858 69.7476C92.8355 76.6855 97.5298 82.5695 103.795 86.3041C110.059 90.0387 117.468 91.3694 124.641 90.0485C131.814 88.7276 138.262 84.8451 142.786 79.1238C142.268 80.3266 141.672 81.4947 141.003 82.6208Z" fill="#E3EFFB"/>
<path d="M98.2107 95.5927C92.6523 92.2793 88.2013 87.392 85.4205 81.5489C82.6398 75.7058 81.6541 69.1693 82.5883 62.766C83.5224 56.3627 86.3344 50.3803 90.6685 45.5751C95.0027 40.77 100.664 37.358 106.938 35.7706C113.211 34.1832 119.814 34.4917 125.912 36.6571C132.01 38.8225 137.329 42.7475 141.196 47.9359C145.064 53.1242 147.306 59.3428 147.639 65.8053C147.972 72.2678 146.381 78.6839 143.067 84.2422C138.617 91.6875 131.395 97.0635 122.986 99.1914C114.577 101.319 105.667 100.025 98.2107 95.5927ZM129.006 43.9336C124.348 41.1572 118.972 39.8242 113.557 40.1033C108.142 40.3823 102.931 42.2609 98.5839 45.5013C94.2365 48.7418 90.9477 53.1986 89.1333 58.3082C87.3188 63.4178 87.0603 68.9507 88.3904 74.2073C89.7205 79.4638 92.5795 84.2079 96.6058 87.8396C100.632 91.4713 105.645 93.8274 111.01 94.6102C116.376 95.3929 121.853 94.567 126.749 92.237C131.645 89.9069 135.74 86.1773 138.516 81.5199C142.231 75.2723 143.315 67.8065 141.532 60.7603C139.749 53.714 135.244 47.6627 129.006 43.9336Z" fill="#051423"/>
<path d="M109.327 64.2753C109.554 63.8637 109.91 63.5386 110.341 63.3504C110.526 63.2668 110.729 63.2303 110.931 63.244C111.134 63.2578 111.33 63.3213 111.502 63.4291L114.79 65.3889L116.795 62.0248C116.908 61.8494 117.06 61.7029 117.24 61.5969C117.419 61.4908 117.621 61.4283 117.829 61.4141C118.316 61.3453 118.812 61.4502 119.229 61.7105C119.664 61.9478 119.997 62.3376 120.162 62.805C120.239 62.995 120.271 63.1997 120.257 63.4039C120.243 63.6081 120.183 63.8065 120.082 63.9845L118.077 67.3486L121.33 69.2875C121.5 69.3974 121.644 69.5441 121.75 69.7168C121.856 69.8896 121.922 70.084 121.943 70.2856C122.023 70.7535 121.928 71.2345 121.676 71.6367C121.449 72.0523 121.076 72.3684 120.628 72.5227C120.438 72.5938 120.235 72.6216 120.033 72.6041C119.831 72.5866 119.636 72.5243 119.461 72.4218L116.202 70.4787L114.176 73.8776C114.074 74.0579 113.931 74.2113 113.758 74.325C113.585 74.4387 113.387 74.5094 113.182 74.5312C112.691 74.5739 112.2 74.4478 111.79 74.1736C111.359 73.9377 111.016 73.5677 110.814 73.1195C110.725 72.9288 110.686 72.7191 110.699 72.5093C110.712 72.2994 110.777 72.0962 110.888 71.9178L112.914 68.5189L109.627 66.5592C109.452 66.4621 109.303 66.3246 109.192 66.1583C109.081 65.992 109.011 65.8016 108.988 65.6029C108.945 65.1346 109.065 64.6657 109.327 64.2753Z" fill="#051423"/>
<path d="M61.1835 144.911L57.0045 142.42C56.4005 142.06 55.9642 141.474 55.7917 140.793C55.6192 140.111 55.7246 139.388 56.0847 138.784C56.4448 138.18 57.0301 137.744 57.7118 137.572C58.3935 137.399 59.1159 137.504 59.7199 137.865L63.8989 140.356C64.5029 140.716 64.9392 141.301 65.1117 141.983C65.2842 142.665 65.1788 143.387 64.8188 143.991C64.4587 144.595 63.8734 145.031 63.1916 145.204C62.5099 145.376 61.7876 145.271 61.1835 144.911Z" fill="#051423"/>
<path d="M68.5874 149.325L68.4132 149.221C67.8092 148.861 67.3729 148.276 67.2004 147.594C67.0279 146.912 67.1333 146.19 67.4934 145.586C67.8535 144.982 68.4388 144.545 69.1205 144.373C69.8022 144.2 70.5246 144.306 71.1286 144.666L71.3027 144.77C71.9068 145.13 72.343 145.715 72.5155 146.397C72.6881 147.078 72.5827 147.801 72.2226 148.405C71.8625 149.009 71.2772 149.445 70.5955 149.618C69.9137 149.79 69.1914 149.685 68.5874 149.325Z" fill="#051423"/>
</svg>
